<svg version="1.1" id="Layer_1" xmlns="http://www.w3.org/2000/svg" xmlns:xlink="http://www.w3.org/1999/xlink" x="0px" y="0px"
	 width="100%" viewBox="0 0 384 384" enable-background="new 0 0 384 384" xml:space="preserve">
<path fill="#000000" opacity="1.000000" stroke="none"
	d="
M175.949249,295.966248
	C165.980820,303.799805 156.308640,311.433960 146.558563,318.967316
	C145.245819,319.981598 143.488251,322.073639 141.852844,320.046295
	C139.924561,317.655853 142.730881,316.538452 144.111282,315.456421
	C156.169159,306.004822 168.246216,296.574982 180.462387,287.330017
	C183.566071,284.981201 184.735107,282.397156 184.755219,278.486938
	C184.823730,265.162994 184.088028,251.820572 185.313293,238.514267
	C185.474670,236.761887 185.122284,235.330658 183.086197,235.477295
	C174.008835,236.131119 164.939880,236.901886 155.095291,237.692444
	C156.966660,243.367859 160.603256,247.610229 162.405365,252.698624
	C163.633942,256.167603 167.204681,259.446259 162.555435,262.745941
	C157.115112,266.607025 149.604568,265.934235 146.196976,261.552887
	C142.913361,257.330902 142.308014,252.292450 142.633194,247.303513
	C143.086899,240.342896 140.327698,234.801697 135.554886,230.405457
	C122.943138,218.788818 113.027206,205.387360 107.990791,188.909134
	C104.390137,177.128433 97.951859,166.990158 91.864807,156.492996
	C87.708603,149.325592 86.142822,140.877960 86.818436,132.395462
	C87.162071,128.080948 91.545303,125.213737 96.043228,126.256897
	C100.950806,127.395065 104.636826,129.839508 106.503357,135.142944
	C108.755165,141.541122 111.842857,147.661407 114.805153,153.787659
	C116.856224,158.029434 118.516678,162.417358 119.047867,167.030579
	C119.379318,169.909134 119.792770,172.681763 121.169487,175.144333
	C127.204697,185.939697 129.737808,198.573563 139.046219,207.700775
	C143.742020,212.305130 145.523010,218.855438 147.554153,225.033035
	C149.901245,232.171600 151.016708,233.190506 158.393799,232.821930
	C166.369141,232.423477 174.320587,231.565842 182.290771,231.033157
	C184.739349,230.869492 185.861359,229.745483 186.171646,227.396439
	C186.889694,221.960205 187.630569,216.525085 188.493820,211.110489
	C189.326996,205.884598 190.325256,200.685043 191.314209,195.118057
	C178.490799,196.075607 166.669037,192.640030 155.167862,188.196136
	C132.253342,179.342239 117.823158,153.850739 121.032486,129.564697
	C122.793159,116.241096 128.104874,105.409332 139.942657,98.489479
	C138.887650,96.447342 135.589355,96.696701 136.522339,94.236038
	C137.458176,91.767860 140.079361,92.440163 141.802002,92.885910
	C145.603195,93.869499 148.603531,92.815063 151.497604,90.493370
	C159.146423,84.357353 168.249435,83.088058 177.674637,82.108643
	C190.057022,80.821930 202.095444,77.191612 214.703629,76.940872
	C227.859039,76.679245 236.686844,83.444038 243.767090,93.330322
	C245.581863,95.864334 247.166397,97.240936 250.401230,97.528870
	C267.622528,99.061760 284.678772,102.567871 302.090759,101.767311
	C305.080139,101.629875 308.054901,101.174431 311.044281,101.037476
	C312.695374,100.961838 314.761139,101.033691 314.811951,103.277046
	C314.858002,105.308601 312.877533,105.150146 311.432648,105.355537
	C296.412781,107.490707 281.550568,105.748528 266.653687,103.814583
	C260.822388,103.057549 254.938324,101.555344 249.540604,102.442383
	C249.540604,109.727531 249.064087,116.542664 249.685608,123.256134
	C250.219955,129.027985 250.148621,134.408676 247.985336,139.895828
	C246.351456,144.040176 245.189621,148.481323 244.576767,152.895752
	C243.035843,163.994965 237.575928,172.637924 228.293564,178.472397
	C221.107025,182.989532 213.031982,185.883316 204.563019,187.173737
	C201.177536,187.689575 198.787369,188.723770 197.319153,192.156143
	C193.059662,202.113861 192.037567,212.720078 190.775665,223.262039
	C190.536194,225.262527 189.542007,227.477646 190.810410,229.827728
	C195.246323,230.485153 199.635712,229.198395 203.984467,228.470963
	C208.089462,227.784286 212.119843,226.702606 216.322372,226.844681
	C219.564926,226.954300 220.848938,225.374893 220.620956,222.236984
	C220.512589,220.745529 220.607605,219.238419 220.627594,217.738647
	C220.710709,211.501465 222.449463,206.040253 228.251419,202.387787
	C234.583908,203.676514 241.251663,205.689529 248.631210,203.440125
	C250.621277,208.476715 255.729446,211.442291 258.307129,216.578552
	C261.347290,222.636383 261.025970,227.952347 257.212708,233.413406
	C253.767410,238.347458 248.941498,242.060349 245.619247,247.135895
	C243.992493,249.621155 241.523300,249.382553 240.361435,246.283905
	C239.665619,244.428177 238.821808,242.956116 236.785141,242.575317
	C231.346634,241.558517 227.622971,237.972733 224.248642,234.021286
	C222.318420,231.760971 220.163437,231.031418 217.255096,231.118820
	C209.042786,231.365601 201.143234,233.561020 193.076599,234.687134
	C190.579544,235.035721 189.517242,236.478867 189.319183,239.089508
	C188.360046,251.731888 188.372345,264.389526 188.362701,277.052399
	C188.360535,279.905121 189.578674,280.990906 192.326263,280.672760
	C194.303329,280.443878 195.912979,281.255615 197.218384,282.682404
	C204.512146,290.654236 211.800171,298.631348 219.068558,306.626312
	C219.621628,307.234650 220.069504,307.962189 220.457275,308.692230
	C221.206268,310.102295 221.664948,311.643707 219.942917,312.617340
	C218.288162,313.552948 217.633087,311.992889 216.831512,310.984680
	C210.508713,303.032440 203.978195,295.265442 196.523346,288.329437
	C195.000854,286.912903 193.917313,284.621918 191.206924,285.368774
	C188.123596,286.218384 188.648865,288.816620 188.464279,291.093170
	C188.372940,292.219879 188.405365,293.493622 187.027390,293.909515
	C184.603973,294.196136 185.282547,291.230530 183.457779,290.740784
	C180.558975,291.578339 178.773880,294.230560 175.949249,295.966248
M240.347244,155.520630
	C240.967087,151.257614 240.772705,146.809647 242.697693,142.828705
	C247.130508,133.661514 246.354660,123.947540 245.321426,114.393700
	C243.827942,100.584045 246.470871,101.459633 230.602814,101.270309
	C203.667252,100.948944 176.676559,102.651108 149.820786,99.279472
	C146.485641,98.860764 144.142395,100.529945 141.624176,102.185326
	C130.775940,109.316605 125.941055,119.470505 124.879555,132.299271
	C123.162613,153.049438 136.626465,175.920105 155.909912,183.926987
	C164.284134,187.404129 173.101120,189.024826 181.904922,190.698456
	C187.321625,191.728180 192.196411,190.088486 195.903793,185.949326
	C197.756241,183.881134 200.019455,183.265320 202.498978,182.895126
	C219.511902,180.355072 233.912796,174.148254 240.347244,155.520630
M144.320435,228.062393
	C141.516083,219.061249 137.563766,210.756714 130.498352,204.183441
	C129.222473,202.996445 128.462997,201.147171 127.747520,199.482285
	C122.632889,187.580750 117.360519,175.758759 110.857491,164.530045
	C110.179611,163.359558 109.177559,161.949631 110.759026,161.064896
	C113.502617,159.529999 112.397728,157.790359 111.297218,156.112366
	C109.816315,153.854355 108.954292,151.358505 107.947052,148.893372
	C106.061104,144.277634 104.065674,139.700882 101.940018,135.190750
	C100.294647,131.699646 97.212997,130.704453 93.596565,131.187790
	C91.067154,131.525848 90.233307,133.504013 90.551842,135.587158
	C91.677414,142.948364 92.638313,150.222763 96.907310,156.856873
	C102.904388,166.176437 108.488350,175.742645 111.616661,186.653397
	C113.746712,194.082458 116.605377,201.382202 121.437370,207.798767
	C126.850540,214.987061 132.040131,222.288895 139.071121,228.045685
	C141.028778,229.648544 142.152130,231.890945 143.481583,234.015457
	C146.946915,239.553207 146.791061,245.670898 147.148056,251.832993
	C147.645935,260.426666 152.188507,262.738953 160.178406,258.577637
	C158.540283,254.318756 156.974731,250.029144 154.547333,246.039764
	C151.095581,240.366867 147.902618,234.536514 144.320435,228.062393
M232.691437,87.830460
	C229.096497,84.772530 225.198685,81.529953 220.456741,81.617462
	C213.834015,81.739693 207.139374,81.442383 200.543045,82.687737
	C190.086807,84.661819 179.661041,86.732483 168.992279,87.494820
	C163.399399,87.894463 158.296570,90.297707 153.101761,95.224709
	C182.847366,98.146164 211.431992,96.423431 240.646713,96.951202
	C238.883377,92.318634 236.206070,90.163559 232.691437,87.830460
M224.738937,226.397583
	C226.766708,231.905396 230.660629,235.490860 236.102493,237.531250
	C238.819382,238.549911 242.006210,238.879730 243.134888,242.722565
	C246.564484,239.069290 249.784729,235.950089 252.642853,232.528427
	C258.258942,225.805023 257.660034,219.077103 251.091034,213.255371
	C249.748764,212.065796 248.299332,210.709534 246.459198,212.856583
	C243.186188,216.675522 243.999908,223.052246 248.235550,225.871780
	C249.435715,226.670685 251.057465,227.159561 250.583878,229.394440
	C247.643906,231.153702 244.849518,229.750443 243.164902,227.718796
	C238.483475,222.072906 240.825821,215.848801 242.770493,209.572983
	C240.001602,208.886917 237.455933,207.468964 234.234497,209.320663
	C236.147598,217.031998 238.078079,224.816742 235.093048,233.217499
	C231.937988,231.033707 232.801056,228.855942 232.763885,226.985214
	C232.664551,221.985794 232.746216,216.973038 230.595688,212.294479
	C229.995499,210.988800 229.629166,209.230133 227.647186,209.413345
	C225.723633,209.591171 225.529694,211.190948 225.241165,212.703918
	C224.426407,216.976364 223.956619,221.259995 224.738937,226.397583
z"/>
<path fill="#000000" opacity="1.000000" stroke="none"
	d="
M215.306747,151.121338
	C213.096710,153.281204 211.951660,155.642853 210.868240,158.108704
	C206.006989,169.172714 193.470947,177.319351 182.159866,177.294006
	C177.316727,177.283157 174.161118,175.247925 172.499619,170.939270
	C169.019608,161.914688 170.841232,152.580704 171.203461,143.345306
	C171.226837,142.749054 171.781937,142.173660 171.953278,141.847916
	C175.350464,142.819427 174.817047,145.108292 174.865311,146.947525
	C175.004929,152.269379 174.860504,157.600006 175.055542,162.918808
	C175.376495,171.671906 179.324844,174.657715 187.752594,172.350357
	C196.729065,169.892792 203.331406,164.408066 207.365768,155.944504
	C208.642868,153.265350 209.347198,150.259186 211.842178,148.276443
	C212.720612,147.578354 213.384491,146.264969 214.755844,147.015991
	C216.406097,147.919724 216.450928,149.318161 215.306747,151.121338
z"/>
<path fill="#000000" opacity="1.000000" stroke="none"
	d="
M226.585480,138.248596
	C225.826843,130.405777 227.906845,123.075706 227.759674,115.611076
	C227.660507,110.579689 226.965134,110.007668 222.196854,111.270905
	C215.992813,112.914520 211.663818,116.681816 209.245224,122.624565
	C208.751953,123.836571 208.543976,125.202759 207.136185,126.063873
	C204.423859,125.346413 204.836990,123.380783 205.384323,121.420776
	C207.551559,113.660004 217.626282,106.136841 225.734116,106.268822
	C229.588287,106.331551 231.814865,108.679153 231.703903,112.236862
	C231.445770,120.514824 230.766953,128.784424 230.050400,137.039352
	C229.906662,138.695236 229.205017,141.074860 226.585480,138.248596
z"/>
<path fill="#000000" opacity="1.000000" stroke="none"
	d="
M177.085876,123.932159
	C175.317032,123.293221 173.840973,122.936409 172.497345,122.299980
	C168.023071,120.180710 165.327621,122.196220 163.039444,125.928825
	C161.719208,128.082489 161.823822,131.163589 159.119797,132.541443
	C156.678696,129.074570 158.231674,123.411690 162.474228,119.630211
	C166.662567,115.897057 177.425751,117.093231 183.354019,121.950699
	C186.242371,124.317345 186.101044,134.293854 182.870178,138.898849
	C180.075317,136.744431 180.660919,133.973679 181.304016,131.300491
	C182.176361,127.674423 181.456009,125.031128 177.085876,123.932159
z"/>
</svg>
